<?xml version="1.0" encoding="utf-8"?>
<!-- Generator: Adobe Illustrator 23.0.4, SVG Export Plug-In . SVG Version: 6.00 Build 0)  -->
<svg version="1.2" baseProfile="tiny" id="Layer_1" xmlns="http://www.w3.org/2000/svg" xmlns:xlink="http://www.w3.org/1999/xlink"
	 x="0px" y="0px" width="250px" height="250px" viewBox="0 0 250 250" xml:space="preserve">
<g>
	<polygon fill="#6D6E71" points="233.16,22.13 229.32,31.95 225.9,22.13 222.06,22.13 222.06,35.79 224.62,35.79 224.62,24.69 
		228.46,35.79 230.6,35.79 234.44,24.69 234.44,35.79 237,35.79 237,22.13 	"/>
	<polygon fill="#6D6E71" points="207.97,24.27 212.24,24.27 212.24,35.79 215.23,35.79 215.23,24.27 219.5,24.27 219.5,22.13 
		207.97,22.13 	"/>
</g>
<g>
	<path fill-rule="evenodd" fill="#ED0000" d="M213.66,192.61c0,26.52-44.6,40.4-88.65,40.4c-44.07,0-88.67-13.87-88.67-40.4V57.39
		c0-0.6,0.07-1.2,0.19-1.77c1.97-25.35,45.43-38.63,88.48-38.63c43.04,0,86.49,13.28,88.46,38.63c0.12,0.57,0.19,1.16,0.19,1.77
		V192.61z"/>
	<path fill-rule="evenodd" fill="#FFFFFF" d="M53.45,172.35v20.26c0,9.27,28.54,23.29,71.56,23.29c43,0,71.54-14.02,71.54-23.29
		v-20.26c-16.99,10.29-44.35,15.59-71.54,15.59C97.81,187.94,70.45,182.64,53.45,172.35z"/>
	<path fill-rule="evenodd" fill="#FFFFFF" d="M53.45,82.2v20.27c0,9.27,28.54,23.29,71.56,23.29c43,0,71.54-14.02,71.54-23.29V82.21
		c-16.99,10.28-44.35,15.59-71.54,15.59C97.81,97.79,70.45,92.49,53.45,82.2z"/>
	<path fill-rule="evenodd" fill="#FFFFFF" d="M53.45,127.28v20.26c0,9.27,28.54,23.3,71.56,23.3c43,0,71.54-14.02,71.54-23.3v-20.25
		c-16.99,10.28-44.35,15.59-71.54,15.59C97.81,142.87,70.45,137.56,53.45,127.28z"/>
	<path fill-rule="evenodd" fill="#FFFFFF" d="M125.01,34.1c-43.02,0-71.56,14.02-71.56,23.29s28.54,23.29,71.56,23.29
		c43,0,71.54-14.02,71.54-23.29S168.02,34.1,125.01,34.1z"/>
</g>
</svg>
