<svg id="Layer_1" data-name="Layer 1" xmlns="http://www.w3.org/2000/svg" viewBox="0 0 250 250"><defs><style>.cls-1{fill:#6d6e71;}.cls-2{fill:#ed0000;fill-rule:evenodd;}</style></defs><title>melbourne_digital_icon</title><polygon class="cls-1" points="231.16 25.13 227.32 34.95 223.9 25.13 220.06 25.13 220.06 38.79 222.62 38.79 222.62 27.7 226.46 38.79 228.6 38.79 232.44 27.7 232.44 38.79 235 38.79 235 25.13 231.16 25.13"/><polygon class="cls-1" points="205.97 27.27 210.24 27.27 210.24 38.79 213.23 38.79 213.23 27.27 217.5 27.27 217.5 25.13 205.97 25.13 205.97 27.27"/><path class="cls-2" d="M229.14,87.52A32.64,32.64,0,0,0,227.61,77c-3.28-9.91-8.79-18.13-18-23.47q-32.2-18.62-64.39-37.26A38.37,38.37,0,0,0,126.48,11c-7.36-.19-14.34,1.13-20.81,4.89C84,28.47,62.28,40.8,40.75,53.52,27.91,61.11,21.16,72.77,21,87.68c-.26,24.91-.07,49.82-.08,74.73a33.28,33.28,0,0,0,1.74,11.21c3.39,9.63,8.86,17.61,17.91,22.83q32,18.42,63.87,36.94a39.2,39.2,0,0,0,17.87,5.53c7.83.43,15.28-.84,22.17-4.85q32.24-18.7,64.53-37.27a38.8,38.8,0,0,0,14.18-14c3.41-5.66,5.81-11.71,5.87-18.4.11-13.12,0-26.25,0-39.37h0C229.13,112.51,229.11,100,229.14,87.52Zm-57.93,72.71c0,13.82-23.24,21.05-46.2,21.05s-46.22-7.23-46.22-21.05V89.76a4.71,4.71,0,0,1,.1-.92c1-13.21,23.68-20.13,46.12-20.13s45.07,6.92,46.1,20.13a4.71,4.71,0,0,1,.1.92Zm-83.5-10.56v10.56c0,4.83,14.88,12.14,37.3,12.14s37.28-7.31,37.28-12.14V149.67c-8.85,5.36-23.11,8.13-37.28,8.13S96.57,155,87.71,149.67Zm0-47v10.56c0,4.83,14.88,12.14,37.3,12.14s37.28-7.31,37.28-12.14V102.69c-8.85,5.36-23.11,8.12-37.28,8.12S96.57,108.05,87.71,102.69Zm0,23.49v10.56c0,4.83,14.88,12.14,37.3,12.14s37.28-7.31,37.28-12.14V126.18c-8.85,5.36-23.11,8.13-37.28,8.13S96.57,131.54,87.71,126.18ZM125,77.62c-22.42,0-37.3,7.31-37.3,12.14S102.59,101.9,125,101.9s37.28-7.31,37.28-12.14S147.42,77.62,125,77.62Z"/></svg>