<?xml version="1.0" encoding="utf-8"?>
<!-- Generator: Adobe Illustrator 23.0.4, SVG Export Plug-In . SVG Version: 6.00 Build 0)  -->
<svg version="1.2" baseProfile="tiny" id="Layer_1" xmlns="http://www.w3.org/2000/svg" xmlns:xlink="http://www.w3.org/1999/xlink"
	 x="0px" y="0px" width="250px" height="250px" viewBox="0 0 250 250" xml:space="preserve">
<g>
	<polygon fill="#6D6E71" points="223.11,16.7 218.95,27.35 215.24,16.7 211.07,16.7 211.07,31.51 213.85,31.51 213.85,19.48 
		218.01,31.51 220.33,31.51 224.5,19.48 224.5,31.51 227.28,31.51 227.28,16.7 	"/>
	<polygon fill="#6D6E71" points="195.79,19.02 200.42,19.02 200.42,31.51 203.67,31.51 203.67,19.02 208.3,19.02 208.3,16.7 
		195.79,16.7 	"/>
</g>
<path fill-rule="evenodd" fill="#FFFFFF" d="M229.63,87.35c0.07-3.58-0.45-7.15-1.54-10.57c-3.3-9.96-8.83-18.22-18.09-23.58
	c-21.57-12.47-43.13-24.95-64.7-37.44c-5.72-3.35-12.2-5.18-18.83-5.3c-7.39-0.19-14.41,1.14-20.91,4.91
	C83.8,28.02,61.98,40.41,40.35,53.19c-12.9,7.63-19.68,19.34-19.84,34.32c-0.26,25.03-0.07,50.06-0.08,75.08
	c-0.07,3.83,0.53,7.64,1.75,11.26c3.41,9.68,8.9,17.69,17.99,22.94c21.43,12.34,42.83,24.71,64.17,37.12
	c5.45,3.27,11.61,5.18,17.95,5.56c7.87,0.43,15.35-0.84,22.28-4.87c21.6-12.53,43.21-25.01,64.84-37.45
	c5.89-3.37,10.8-8.22,14.25-14.07c3.43-5.69,5.84-11.77,5.9-18.49c0.11-13.18,0-26.37,0-39.56l0,0
	C229.62,112.46,229.6,99.89,229.63,87.35z"/>
<path fill="#ED0000" d="M125.17,242.55c-1,0-2.01-0.03-3.04-0.08c-6.81-0.4-13.5-2.47-19.34-5.98
	c-21.09-12.25-42.67-24.74-64.12-37.09c-9.03-5.21-15.35-13.23-19.33-24.54c-1.35-4-1.99-8.13-1.92-12.31
	c0-7.65-0.01-15.36-0.03-23.06c-0.04-17.04-0.07-34.66,0.11-52c0.17-15.98,7.54-28.73,21.32-36.87c13.9-8.21,28.11-16.4,41.86-24.31
	c7.8-4.49,15.6-8.98,23.39-13.51c6.54-3.8,13.9-5.54,22.49-5.32c7.1,0.12,14.12,2.1,20.27,5.71c21.55,12.48,43.11,24.96,64.68,37.43
	c9.23,5.35,15.58,13.6,19.43,25.24c1.2,3.76,1.76,7.63,1.69,11.54c-0.01,4.49-0.02,8.98-0.02,13.48
	c-0.01,8.06-0.02,16.12-0.06,24.19c0,4.37,0.01,8.77,0.02,13.16c0.02,8.65,0.05,17.6-0.02,26.41c-0.06,6.5-2.13,13.04-6.33,20.01
	c-3.69,6.26-8.99,11.5-15.33,15.12c-21.44,12.33-43.25,24.93-64.82,37.44C139.9,240.79,133.03,242.55,125.17,242.55z M125.15,13.45
	c-6.92,0-12.83,1.48-18.06,4.52C99.28,22.5,91.48,27,83.67,31.49c-13.73,7.91-27.93,16.09-41.8,24.28
	C29.83,62.89,23.65,73.58,23.5,87.54c-0.18,17.3-0.14,34.9-0.11,51.93c0.02,7.71,0.03,15.42,0.03,23.13
	c-0.06,3.54,0.48,6.99,1.59,10.3c3.47,9.86,8.92,16.84,16.65,21.3c21.45,12.35,43.05,24.84,64.18,37.12
	c5.05,3.03,10.79,4.81,16.62,5.16c7.93,0.43,14.67-1.03,20.59-4.47c21.58-12.52,43.4-25.12,64.85-37.46
	c5.44-3.11,9.99-7.6,13.16-12.99c3.7-6.14,5.43-11.53,5.48-16.99c0.07-8.77,0.05-17.7,0.02-26.34c-0.01-4.4-0.02-8.8-0.02-13.19
	c0.04-8.08,0.05-16.14,0.06-24.18c0-4.51,0.01-9.01,0.02-13.51l0-0.05c0.06-3.26-0.41-6.5-1.4-9.6
	c-3.36-10.14-8.83-17.32-16.73-21.9c-21.57-12.47-43.13-24.95-64.69-37.44c-5.28-3.1-11.28-4.78-17.38-4.89
	C126,13.46,125.57,13.45,125.15,13.45z"/>
<g>
	<g>
		<path fill="#ED0000" d="M65.82,99.05v7.19h0.2c1.84-2.74,4.05-4.86,6.65-6.37c2.59-1.51,5.56-2.26,8.91-2.26
			c3.22,0,6.15,0.65,8.81,1.95c2.66,1.3,4.68,3.6,6.06,6.88c1.51-2.33,3.56-4.38,6.15-6.16c2.59-1.78,5.66-2.67,9.21-2.67
			c2.69,0,5.18,0.34,7.48,1.03c2.3,0.69,4.27,1.78,5.91,3.29c1.64,1.51,2.92,3.48,3.84,5.91c0.92,2.43,1.38,5.36,1.38,8.78v35.54
			h-13.98v-30.1c0-1.78-0.07-3.46-0.2-5.03c-0.13-1.57-0.49-2.94-1.08-4.11c-0.59-1.16-1.46-2.09-2.61-2.77
			c-1.15-0.68-2.71-1.03-4.68-1.03c-1.97,0-3.56,0.39-4.78,1.18c-1.22,0.79-2.17,1.82-2.86,3.08c-0.69,1.27-1.15,2.71-1.38,4.31
			c-0.23,1.61-0.34,3.24-0.34,4.88v29.59H84.53v-29.79c0-1.57-0.03-3.13-0.1-4.67c-0.07-1.54-0.34-2.96-0.84-4.26
			c-0.49-1.3-1.31-2.34-2.46-3.13c-1.15-0.79-2.84-1.18-5.07-1.18c-0.66,0-1.53,0.15-2.61,0.46c-1.08,0.31-2.13,0.89-3.15,1.75
			c-1.02,0.86-1.89,2.09-2.61,3.7c-0.72,1.61-1.08,3.72-1.08,6.32v30.82H52.63V99.05H65.82z"/>
	</g>
	<g>
		<path fill="#ED0000" d="M154.24,109.15c0,6.19-2.3,9.61-6.33,9.61c-3.56,0-5.97-3.33-6.02-9.36c0-6.11,2.63-9.47,6.33-9.47
			C152.06,99.93,154.24,103.35,154.24,109.15z M144.35,109.43c0,4.74,1.46,7.43,3.7,7.43c2.52,0,3.73-2.94,3.73-7.59
			c0-4.48-1.15-7.43-3.7-7.43C145.92,101.83,144.35,104.47,144.35,109.43z"/>
		<path fill="#ED0000" d="M161.86,102.53h-0.06l-3.17,1.71l-0.48-1.88l3.98-2.13h2.1v18.21h-2.38V102.53z"/>
		<path fill="#ED0000" d="M176.24,102.53h-0.06l-3.17,1.71l-0.48-1.88l3.98-2.13h2.1v18.21h-2.38V102.53z"/>
		<path fill="#ED0000" d="M197.37,109.15c0,6.19-2.3,9.61-6.33,9.61c-3.56,0-5.97-3.33-6.02-9.36c0-6.11,2.63-9.47,6.33-9.47
			C195.18,99.93,197.37,103.35,197.37,109.15z M187.48,109.43c0,4.74,1.46,7.43,3.7,7.43c2.52,0,3.73-2.94,3.73-7.59
			c0-4.48-1.15-7.43-3.7-7.43C189.05,101.83,187.48,104.47,187.48,109.43z"/>
		<path fill="#ED0000" d="M154.24,142.77c0,6.19-2.3,9.61-6.33,9.61c-3.56,0-5.97-3.33-6.02-9.36c0-6.11,2.63-9.47,6.33-9.47
			C152.06,133.56,154.24,136.97,154.24,142.77z M144.35,143.06c0,4.74,1.46,7.42,3.7,7.42c2.52,0,3.73-2.94,3.73-7.59
			c0-4.48-1.15-7.42-3.7-7.42C145.92,135.46,144.35,138.1,144.35,143.06z"/>
		<path fill="#ED0000" d="M161.86,136.16h-0.06l-3.17,1.71l-0.48-1.88l3.98-2.13h2.1v18.21h-2.38V136.16z"/>
		<path fill="#ED0000" d="M182.99,142.77c0,6.19-2.3,9.61-6.33,9.61c-3.56,0-5.97-3.33-6.02-9.36c0-6.11,2.63-9.47,6.33-9.47
			C180.81,133.56,182.99,136.97,182.99,142.77z M173.1,143.06c0,4.74,1.46,7.42,3.7,7.42c2.52,0,3.73-2.94,3.73-7.59
			c0-4.48-1.15-7.42-3.7-7.42C174.67,135.46,173.1,138.1,173.1,143.06z"/>
		<path fill="#ED0000" d="M197.37,142.77c0,6.19-2.3,9.61-6.33,9.61c-3.56,0-5.97-3.33-6.02-9.36c0-6.11,2.63-9.47,6.33-9.47
			C195.18,133.56,197.37,136.97,197.37,142.77z M187.48,143.06c0,4.74,1.46,7.42,3.7,7.42c2.52,0,3.73-2.94,3.73-7.59
			c0-4.48-1.15-7.42-3.7-7.42C189.05,135.46,187.48,138.1,187.48,143.06z"/>
	</g>
</g>
</svg>
