<?xml version="1.0" encoding="utf-8"?>
<!-- Generator: Adobe Illustrator 23.0.4, SVG Export Plug-In . SVG Version: 6.00 Build 0)  -->
<svg version="1.2" baseProfile="tiny" id="Layer_1" xmlns="http://www.w3.org/2000/svg" xmlns:xlink="http://www.w3.org/1999/xlink"
	 x="0px" y="0px" width="234.82px" height="47.99px" viewBox="0 0 234.82 47.99" xml:space="preserve">
<title>Group 3</title>
<desc>Created with Sketch.</desc>
<path id="Shape" fill="#ED0000" d="M169.41,14.9c-0.6-1.1-1.5-1.9-2.7-2.4c-1.1-0.5-2.3-0.8-3.5-0.8c-1.3,0-2.5,0.3-3.4,0.8
	c-1,0.5-1.8,1.2-2.4,2c-0.6,0.8-1.1,1.8-1.4,2.9c-0.3,1.1-0.5,2.3-0.5,3.5c0,1.3,0.1,2.5,0.4,3.6c0.3,1.1,0.8,2.1,1.4,2.9
	c0.6,0.8,1.4,1.5,2.4,1.9c1,0.5,2.2,0.7,3.6,0.7c0.6,0,1.1-0.1,1.7-0.2c0.6-0.2,1.1-0.4,1.7-0.7c0.5-0.3,1-0.7,1.5-1.1
	s0.8-0.9,1.1-1.5h0.1v3h2V5.4h-2L169.41,14.9L169.41,14.9z M169.01,23.7c-0.3,0.9-0.6,1.7-1.1,2.3c-0.5,0.7-1.1,1.2-1.8,1.6
	s-1.6,0.6-2.5,0.6c-0.8,0-1.6-0.1-2.3-0.5c-0.7-0.3-1.3-0.7-1.9-1.3c-0.5-0.6-1-1.3-1.3-2.1c-0.3-0.8-0.5-1.8-0.5-2.9s0-2.1,0.3-3.1
	c0.2-0.9,0.6-1.8,1.1-2.5s1.1-1.3,1.9-1.7c0.8-0.4,1.7-0.6,2.7-0.6c0.9,0,1.7,0.2,2.5,0.6c0.7,0.4,1.3,0.9,1.8,1.6s0.9,1.4,1.2,2.3
	c0.3,0.9,0.4,1.8,0.4,2.8C169.41,21.8,169.21,22.7,169.01,23.7z"/>
<rect id="Rectangle-path" x="173.41" y="12.1" fill="#ED0000" width="2" height="17.3"/>
<rect x="173.31" y="5.4" fill="#ED0000" width="2.2" height="3"/>
<path fill="#ED0000" d="M190.51,15.2L190.51,15.2c-0.4-0.6-0.7-1.1-1.2-1.5s-1-0.8-1.5-1.1s-1.1-0.5-1.7-0.7
	c-0.6-0.2-1.1-0.2-1.7-0.2c-1.4,0-2.6,0.2-3.6,0.7s-1.8,1.1-2.4,1.9c-0.6,0.8-1.1,1.8-1.4,2.9c-0.3,1.1-0.4,2.3-0.4,3.6
	c0,1.2,0.2,2.4,0.5,3.5s0.8,2.1,1.4,2.9c0.6,0.8,1.4,1.5,2.4,2s2.1,0.8,3.4,0.8c1.2,0,2.4-0.3,3.5-0.8s2-1.4,2.7-2.4
	c0,1,0,2-0.2,2.9c-0.1,1-0.4,1.8-0.8,2.6c-0.4,0.8-1,1.4-1.9,1.8c-0.8,0.5-1.9,0.7-3.3,0.7c-0.6,0-1.2,0-1.7-0.1
	c-0.6-0.1-1.1-0.3-1.5-0.5c-0.5-0.2-0.9-0.6-1.2-1c-0.3-0.4-0.6-0.9-0.7-1.6h-2.1c0,0.5,0.2,1.1,0.5,1.7c0.3,0.6,0.7,1.1,1.3,1.6
	s1.3,0.9,2.2,1.2c0.9,0.3,2,0.5,3.3,0.5c1.6,0,3-0.2,4-0.7s1.9-1.1,2.5-1.9s1-1.7,1.3-2.8c0.2-1.1,0.4-2.2,0.4-3.3V12.1h-2
	L190.51,15.2L190.51,15.2z M190.11,23.7c-0.3,0.9-0.7,1.6-1.2,2.3c-0.5,0.7-1.1,1.2-1.8,1.6s-1.5,0.6-2.5,0.6s-1.9-0.2-2.7-0.6
	s-1.4-1-1.9-1.7s-0.8-1.5-1.1-2.5c-0.2-0.9-0.3-2-0.3-3.1s0.1-2.1,0.5-2.9c0.3-0.8,0.7-1.5,1.3-2.1c0.5-0.6,1.2-1,1.9-1.3
	s1.5-0.5,2.3-0.5c0.9,0,1.8,0.2,2.5,0.6c0.7,0.4,1.3,0.9,1.8,1.6s0.9,1.4,1.1,2.3c0.3,0.9,0.4,1.9,0.4,2.9
	C190.51,21.8,190.41,22.8,190.11,23.7z"/>
<rect x="194.51" y="12.1" fill="#ED0000" width="2" height="17.3"/>
<rect x="194.41" y="5.4" fill="#ED0000" width="2.2" height="3"/>
<path fill="#ED0000" d="M218.01,28c-0.3-0.2-0.4-0.7-0.4-1.5v-9.4c0-1-0.2-1.8-0.5-2.5s-0.8-1.2-1.3-1.7c-0.6-0.4-1.2-0.7-2-0.9
	s-1.6-0.3-2.5-0.3s-1.8,0.1-2.7,0.3c-0.8,0.2-1.6,0.5-2.2,1c-0.6,0.5-1.2,1-1.6,1.8c-0.4,0.7-0.6,1.6-0.7,2.6h2
	c0.1-0.8,0.3-1.4,0.6-1.9s0.6-0.9,1.1-1.2c0.4-0.3,0.9-0.5,1.5-0.6s1.2-0.2,1.9-0.2c1.6,0,2.7,0.3,3.3,1c0.7,0.7,1,1.5,1,2.5
	c0,0.3,0,0.7-0.1,1c-0.1,0.4-0.3,0.6-0.6,0.8c-0.3,0.2-0.8,0.3-1.3,0.4c-0.5,0.1-1,0.2-1.4,0.2l-2.8,0.4c-4,0.5-6,2.3-6,5.2
	c0,0.8,0.2,1.6,0.5,2.2c0.1,0.3,0.3,0.5,0.5,0.8c-0.3,0.1-0.5,0.1-0.8,0.2c-0.3,0-0.6,0.1-0.8,0.1c-0.4,0-0.8,0-1-0.1
	s-0.4-0.2-0.5-0.4c-0.1-0.2-0.2-0.5-0.2-0.8s0-0.7,0-1.1V13.8h3.2v-1.7h-3.2V7.3h-2v4.8h-2.4v1.7h2.4v12.7c0,1.3,0.3,2.2,0.8,2.7
	s1.3,0.8,2.3,0.8c0.5,0,0.9-0.1,1.3-0.2c0.4-0.1,0.7-0.2,1-0.2V28c0.2,0.3,0.5,0.5,0.7,0.7c0.5,0.4,1.2,0.7,1.9,0.9
	c0.7,0.2,1.4,0.3,2.2,0.3c1.3,0,2.5-0.2,3.5-0.7c1.1-0.5,2.1-1.2,2.9-2.1c0,0.3,0,0.6,0.1,0.9c0,0.3,0.1,0.5,0.3,0.8
	c0.1,0.2,0.3,0.4,0.5,0.6s0.5,0.3,0.8,0.3c0.3,0.1,0.6,0.1,0.9,0.1c0.3,0,0.6,0,0.9-0.1c0.3-0.1,0.5-0.2,0.7-0.2v-1.6
	C218.81,28.1,218.31,28.2,218.01,28z M215.61,23.1c0,0.9-0.2,1.6-0.5,2.3c-0.4,0.6-0.8,1.2-1.4,1.6c-0.6,0.4-1.3,0.7-2,0.9
	c-0.8,0.2-1.5,0.3-2.3,0.3c-0.5,0-0.9-0.1-1.4-0.2s-0.9-0.3-1.2-0.6c-0.3-0.3-0.6-0.6-0.8-1s-0.3-0.9-0.3-1.4c0-1.2,0.4-2.1,1.3-2.6
	c0.9-0.6,2.1-0.9,3.6-1c0.9-0.1,1.7-0.2,2.6-0.3c0.9-0.1,1.7-0.3,2.6-0.7L215.61,23.1L215.61,23.1z"/>
<rect x="219.81" y="5.4" fill="#ED0000" width="2" height="24.1"/>
<path fill="#6D6E71" d="M49.71,27.5c0.4-0.5,0.8-0.9,1.1-1.4v3.4h4.6V5.4h-4.7v10.4c-0.2-0.4-0.4-0.8-0.7-1.2
	c-0.8-1.2-1.8-2.1-3.1-2.6c-1.1-0.5-2.5-0.8-4.1-0.8c-2.6,0-4.7,0.8-6.4,2.5c-0.9,0.9-1.6,2.1-2,3.6c0-0.7-0.1-1.2-0.1-1.6
	c-0.2-0.9-0.5-1.7-1-2.3c-0.6-0.8-1.3-1.3-2.1-1.6c-0.8-0.3-1.5-0.5-2.3-0.5c-1.2,0-2.2,0.2-3.2,0.7c-0.9,0.5-1.7,1.3-2.3,2.3
	c-0.3-0.9-0.9-1.6-1.5-2.1c-0.8-0.6-1.9-0.9-3.3-0.9s-2.6,0.3-3.5,1c-0.5,0.4-1.1,1-1.6,2v-2.6h-4.5v17.8h4.7V18.7
	c0-1,0.1-1.7,0.4-2.2c0.5-0.9,1.3-1.3,2.7-1.3c1.1,0,1.9,0.4,2.3,1.3c0.2,0.5,0.3,1.2,0.3,2.3v10.6h4.7V18.9c0-0.8,0.1-1.5,0.4-2
	c0.5-1.1,1.4-1.6,2.7-1.6c1.1,0,1.9,0.4,2.3,1.2c0.2,0.4,0.3,1,0.3,1.7v11.3h4.8v-5.2c0.4,1.5,1.2,2.7,2.3,3.6
	c1.8,1.5,3.9,2.2,6.3,2.2C45.91,30.1,48.11,29.2,49.71,27.5z M40.11,16c0.7-0.7,1.6-1,2.8-1c1.1,0,2,0.3,2.8,1
	c0.7,0.6,1.2,1.6,1.2,2.8h-8C39.01,17.6,39.41,16.7,40.11,16z M38.71,21.9h12.1v2.4h-4.1c-0.3,0.5-0.6,0.9-1,1.2
	c-0.7,0.5-1.5,0.8-2.6,0.8c-1,0-1.9-0.2-2.6-0.7C39.41,24.9,38.81,23.6,38.71,21.9z"/>
<path fill="#6D6E71" d="M101.91,21.3c0,1.1-0.2,2.1-0.5,2.8c-0.6,1.3-1.7,1.9-3.2,1.9c-1.2,0-2.1-0.5-2.5-1.4
	c-0.2-0.5-0.4-1.3-0.4-2.3V11.7h-4.8v7c-0.3-1.8-1-3.4-2.1-4.8c-1.5-1.9-3.8-2.8-6.8-2.8c-3.1,0-5.3,0.9-6.8,2.8
	c-0.7,0.8-1.2,1.8-1.6,2.7c-0.3-1.1-0.8-2-1.5-2.9c-1.3-1.7-3.2-2.5-5.5-2.5c-1.3,0-2.4,0.3-3.2,0.8c-0.7,0.4-1.4,1.1-2,1.9V5.4
	h-4.7v24h4.6v-2.2c0.6,0.9,1.2,1.5,1.7,1.8c0.9,0.6,2.1,0.9,3.6,0.9c2.4,0,4.2-0.9,5.5-2.7c0.6-0.8,1.1-1.8,1.4-2.8
	c0.4,1.1,0.9,2,1.6,2.9c1.5,1.9,3.8,2.8,6.8,2.8s5.3-0.9,6.8-2.8c1.1-1.4,1.8-3,2.1-4.8c0,2,0.3,3.5,0.8,4.5
	c0.9,1.9,2.7,2.8,5.3,2.8c0.9,0,1.7-0.1,2.4-0.4c0.7-0.2,1.4-0.7,2.1-1.3c0.2-0.2,0.4-0.4,0.6-0.7c0.2-0.3,0.3-0.4,0.3-0.5v2.6h4.5
	V11.7h-4.7L101.91,21.3L101.91,21.3z M67.91,24.6c-0.7,1-1.6,1.5-2.8,1.5c-1.4,0-2.4-0.5-3.1-1.5c-0.7-1-1-2.3-1-3.8
	c0-1.3,0.2-2.4,0.5-3.2c0.6-1.5,1.8-2.3,3.5-2.3c1.7,0,2.8,0.8,3.5,2.4c0.3,0.8,0.5,1.9,0.5,3.1C68.91,22.4,68.61,23.7,67.91,24.6z
	 M84.81,24.7c-0.7,1-1.8,1.4-3.1,1.4c-1.4,0-2.4-0.5-3.1-1.4c-0.7-1-1.1-2.3-1.1-4.1s0.4-3.2,1.1-4.1c0.7-1,1.8-1.4,3.1-1.4
	c1.4,0,2.4,0.5,3.1,1.4c0.7,1,1.1,2.3,1.1,4.1C85.91,22.4,85.51,23.7,84.81,24.7z"/>
<path fill="#6D6E71" d="M150.61,24.2h-4.7c-0.3,0.5-0.6,0.9-1,1.2c-0.7,0.5-1.5,0.8-2.6,0.8c-1,0-1.9-0.2-2.6-0.7
	c-1.2-0.7-1.8-2-1.9-3.8h13c0-1.5,0-2.7-0.2-3.5c-0.2-1.4-0.7-2.6-1.4-3.7c-0.8-1-1.8-1.9-3-2.5c-1.2-0.6-2.6-0.8-4.2-0.8
	c-2.6,0-4.7,0.8-6.4,2.5c-1,1-1.6,2.2-2,3.7c0-2.2-0.6-3.7-1.7-4.7c-1.2-1-2.7-1.4-4.5-1.4c-1.5,0-2.7,0.4-3.6,1.1
	c-0.5,0.4-1.1,1.1-1.7,2v-2.7h-3.9v-0.4c-0.2,0-0.3,0-0.4,0s-0.1,0-0.2,0c-1.4,0-2.5,0.4-3.4,1.1c-0.5,0.4-1.2,1.2-1.9,2.4v-3.1
	h-4.4v17.8h4.7V21c0-1.4,0.2-2.5,0.5-3.2c0.6-1.2,1.9-1.8,3.8-1.8c0.1,0,0.3,0,0.6,0c0.1,0,0.1,0,0.2,0v13.5h4.7v-9.6
	c0-1.1,0.2-2,0.5-2.7c0.6-1.3,1.7-2,3.2-2c1.3,0,2.1,0.5,2.6,1.4c0.2,0.5,0.4,1.2,0.4,2.2v10.8h4.8v-5.3c0.4,1.6,1.2,2.8,2.3,3.7
	c1.8,1.5,3.9,2.2,6.3,2.2c2.9,0,5.1-0.9,6.7-2.6c0.4-0.4,0.6-0.7,0.9-1.1v3.1h4.9v-4.9h-4.2C150.51,24.5,150.51,24.4,150.61,24.2z
	 M139.21,16c0.7-0.7,1.6-1,2.8-1c1.1,0,2,0.3,2.8,1c0.7,0.6,1.2,1.6,1.2,2.8h-8C138.11,17.6,138.51,16.7,139.21,16z"/>
<polygon fill="#6D6E71" points="229.31,5.2 228.41,7.5 227.61,5.2 226.71,5.2 226.71,8.4 227.31,8.4 227.31,5.8 228.21,8.4 
	228.71,8.4 229.61,5.8 229.61,8.4 230.21,8.4 230.21,5.2 "/>
<polygon fill="#6D6E71" points="223.41,5.7 224.41,5.7 224.41,8.4 225.11,8.4 225.11,5.7 226.11,5.7 226.11,5.2 223.41,5.2 "/>
<g>
	<path fill="#B4B4B5" d="M12.94,41.14v-0.98h-0.02c-0.07,0.17-0.17,0.32-0.29,0.46c-0.13,0.14-0.28,0.26-0.45,0.35
		c-0.17,0.1-0.34,0.17-0.53,0.22c-0.19,0.05-0.38,0.08-0.56,0.08c-0.39,0-0.74-0.07-1.03-0.21s-0.53-0.34-0.72-0.59
		c-0.19-0.25-0.34-0.54-0.43-0.87s-0.14-0.68-0.14-1.04c0-0.37,0.05-0.71,0.14-1.04s0.24-0.62,0.43-0.87
		c0.19-0.25,0.43-0.45,0.72-0.59s0.63-0.22,1.03-0.22c0.19,0,0.38,0.02,0.56,0.07c0.18,0.05,0.35,0.12,0.51,0.21
		c0.16,0.1,0.3,0.22,0.43,0.36c0.12,0.14,0.22,0.3,0.29,0.49h0.02V34h0.63v7.14H12.94z M9.48,39.35c0.06,0.26,0.16,0.5,0.3,0.71
		c0.14,0.21,0.31,0.38,0.53,0.5c0.21,0.13,0.47,0.2,0.77,0.2c0.33,0,0.61-0.07,0.84-0.2s0.42-0.3,0.56-0.5
		c0.14-0.21,0.25-0.44,0.31-0.71c0.06-0.26,0.09-0.53,0.09-0.79s-0.03-0.53-0.09-0.79s-0.17-0.5-0.31-0.71
		c-0.14-0.21-0.33-0.38-0.56-0.5s-0.51-0.2-0.84-0.2c-0.3,0-0.56,0.07-0.77,0.2c-0.21,0.13-0.39,0.3-0.53,0.5
		c-0.14,0.21-0.24,0.44-0.3,0.71s-0.1,0.53-0.1,0.79S9.42,39.09,9.48,39.35z"/>
	<path fill="#B4B4B5" d="M15.36,34v1.01h-0.63V34H15.36z M15.36,35.98v5.16h-0.63v-5.16H15.36z"/>
	<path fill="#B4B4B5" d="M20.8,41.75c-0.08,0.31-0.21,0.57-0.4,0.78c-0.18,0.21-0.42,0.38-0.71,0.49s-0.65,0.17-1.06,0.17
		c-0.26,0-0.51-0.03-0.76-0.09c-0.25-0.06-0.47-0.15-0.67-0.28c-0.2-0.13-0.36-0.29-0.49-0.48c-0.13-0.2-0.21-0.43-0.23-0.71h0.63
		c0.03,0.19,0.1,0.35,0.19,0.48c0.1,0.13,0.21,0.24,0.35,0.32s0.29,0.14,0.46,0.17c0.17,0.04,0.34,0.05,0.51,0.05
		c0.59,0,1.01-0.17,1.27-0.5c0.26-0.33,0.39-0.81,0.39-1.44v-0.7h-0.02c-0.15,0.32-0.36,0.58-0.65,0.77c-0.28,0.19-0.62,0.29-1,0.29
		c-0.41,0-0.77-0.07-1.06-0.21s-0.53-0.33-0.73-0.57c-0.19-0.24-0.33-0.52-0.41-0.84c-0.09-0.32-0.13-0.67-0.13-1.04
		c0-0.35,0.05-0.69,0.16-1c0.1-0.32,0.25-0.59,0.45-0.83s0.44-0.42,0.73-0.56c0.29-0.14,0.62-0.2,1-0.2c0.19,0,0.38,0.03,0.54,0.08
		c0.17,0.05,0.33,0.13,0.47,0.23c0.14,0.1,0.26,0.21,0.38,0.33c0.11,0.13,0.19,0.26,0.25,0.4h0.02v-0.89h0.63v4.74
		C20.93,41.1,20.89,41.44,20.8,41.75z M19.36,40.37c0.21-0.12,0.38-0.27,0.52-0.46c0.14-0.19,0.24-0.41,0.31-0.66
		c0.07-0.25,0.1-0.5,0.1-0.76c0-0.25-0.03-0.51-0.09-0.76c-0.06-0.25-0.16-0.48-0.29-0.69c-0.13-0.21-0.31-0.37-0.52-0.5
		s-0.46-0.19-0.77-0.19c-0.3,0-0.56,0.06-0.77,0.19c-0.21,0.12-0.39,0.29-0.53,0.48c-0.14,0.2-0.24,0.43-0.31,0.69
		s-0.09,0.52-0.09,0.79c0,0.26,0.03,0.51,0.1,0.76c0.07,0.25,0.17,0.46,0.31,0.66c0.14,0.19,0.32,0.34,0.53,0.46
		c0.21,0.12,0.47,0.17,0.76,0.17C18.91,40.55,19.15,40.49,19.36,40.37z"/>
	<path fill="#B4B4B5" d="M22.77,34v1.01h-0.63V34H22.77z M22.77,35.98v5.16h-0.63v-5.16H22.77z"/>
	<path fill="#B4B4B5" d="M26.03,35.98v0.53h-1.05v3.48c0,0.21,0.03,0.37,0.08,0.49c0.06,0.12,0.2,0.18,0.42,0.2
		c0.18,0,0.36-0.01,0.54-0.03v0.53c-0.09,0-0.19,0-0.28,0.01c-0.09,0.01-0.19,0.01-0.28,0.01c-0.42,0-0.71-0.08-0.88-0.25
		c-0.17-0.16-0.25-0.46-0.24-0.9v-3.53h-0.9v-0.53h0.9v-1.55h0.63v1.55H26.03z"/>
	<path fill="#B4B4B5" d="M27.07,36.77c0.11-0.22,0.25-0.4,0.44-0.54c0.18-0.14,0.4-0.24,0.65-0.31s0.52-0.1,0.82-0.1
		c0.23,0,0.45,0.02,0.68,0.06c0.23,0.04,0.43,0.12,0.61,0.25c0.18,0.12,0.33,0.29,0.44,0.5s0.17,0.5,0.17,0.84v2.74
		c0,0.25,0.12,0.38,0.37,0.38c0.07,0,0.14-0.01,0.2-0.04v0.53c-0.07,0.01-0.14,0.02-0.2,0.03s-0.13,0.01-0.21,0.01
		c-0.16,0-0.29-0.02-0.38-0.07c-0.1-0.04-0.17-0.1-0.23-0.18c-0.05-0.08-0.09-0.17-0.1-0.29c-0.02-0.11-0.02-0.23-0.02-0.37h-0.02
		c-0.11,0.17-0.23,0.32-0.35,0.45s-0.25,0.24-0.39,0.33c-0.14,0.09-0.31,0.15-0.49,0.2c-0.18,0.05-0.4,0.07-0.66,0.07
		c-0.24,0-0.46-0.03-0.67-0.08s-0.39-0.15-0.55-0.27c-0.16-0.12-0.28-0.28-0.37-0.47c-0.09-0.19-0.14-0.42-0.14-0.68
		c0-0.36,0.08-0.64,0.24-0.84s0.37-0.36,0.63-0.46c0.26-0.11,0.56-0.18,0.89-0.22c0.33-0.04,0.67-0.09,1-0.12
		c0.13-0.01,0.25-0.03,0.35-0.05c0.1-0.02,0.18-0.05,0.25-0.1c0.07-0.05,0.12-0.12,0.16-0.21c0.04-0.09,0.05-0.2,0.05-0.34
		c0-0.21-0.03-0.39-0.1-0.53c-0.07-0.14-0.17-0.25-0.29-0.33s-0.27-0.13-0.43-0.17c-0.16-0.03-0.34-0.04-0.53-0.04
		c-0.4,0-0.73,0.1-0.98,0.29c-0.25,0.19-0.39,0.5-0.4,0.92h-0.63C26.9,37.26,26.96,37,27.07,36.77z M30.22,38.31
		c-0.04,0.07-0.12,0.13-0.23,0.16s-0.21,0.06-0.3,0.07c-0.27,0.05-0.54,0.09-0.83,0.12c-0.28,0.04-0.54,0.09-0.77,0.17
		s-0.42,0.18-0.58,0.31c-0.15,0.14-0.22,0.33-0.22,0.58c0,0.16,0.03,0.3,0.09,0.43c0.06,0.12,0.15,0.23,0.25,0.32
		c0.11,0.09,0.23,0.16,0.37,0.21c0.14,0.05,0.28,0.07,0.43,0.07c0.24,0,0.47-0.04,0.69-0.11c0.22-0.07,0.41-0.18,0.58-0.32
		c0.16-0.14,0.29-0.31,0.39-0.51c0.1-0.2,0.15-0.43,0.15-0.68v-0.82H30.22z"/>
	<path fill="#B4B4B5" d="M32.77,34v7.14h-0.63V34H32.77z"/>
	<path fill="#B4B4B5" d="M37.54,33.27v9.99h-0.53v-9.99H37.54z"/>
	<path fill="#B4B4B5" d="M42.38,35.98v0.89h0.02c0.12-0.31,0.33-0.57,0.64-0.76c0.31-0.19,0.64-0.28,1.01-0.28
		c0.36,0,0.66,0.05,0.9,0.14s0.44,0.22,0.58,0.39s0.25,0.38,0.31,0.62c0.06,0.25,0.09,0.52,0.09,0.83v3.32h-0.63v-3.22
		c0-0.22-0.02-0.42-0.06-0.62s-0.11-0.36-0.21-0.5s-0.23-0.25-0.4-0.33s-0.38-0.12-0.64-0.12s-0.48,0.04-0.67,0.14
		c-0.2,0.09-0.36,0.21-0.5,0.37c-0.14,0.16-0.24,0.34-0.32,0.56c-0.08,0.22-0.12,0.45-0.12,0.71v3.01h-0.63v-5.16H42.38z"/>
	<path fill="#B4B4B5" d="M47.59,39.43c0.06,0.24,0.17,0.46,0.31,0.66c0.14,0.19,0.32,0.35,0.53,0.48c0.21,0.13,0.47,0.19,0.77,0.19
		c0.46,0,0.82-0.12,1.08-0.36s0.44-0.56,0.54-0.96h0.63c-0.13,0.59-0.38,1.04-0.73,1.36c-0.36,0.32-0.86,0.48-1.52,0.48
		c-0.41,0-0.76-0.07-1.05-0.21c-0.3-0.14-0.54-0.34-0.73-0.59c-0.19-0.25-0.33-0.54-0.42-0.87c-0.09-0.33-0.14-0.68-0.14-1.04
		c0-0.34,0.04-0.67,0.14-1c0.09-0.33,0.23-0.62,0.42-0.88c0.19-0.26,0.43-0.46,0.73-0.62c0.3-0.16,0.65-0.23,1.05-0.23
		c0.41,0,0.77,0.08,1.06,0.25c0.29,0.17,0.53,0.38,0.71,0.65c0.18,0.27,0.31,0.58,0.4,0.93c0.08,0.35,0.11,0.71,0.1,1.06H47.5
		C47.5,38.95,47.53,39.19,47.59,39.43z M50.71,37.51c-0.08-0.22-0.19-0.42-0.33-0.58c-0.14-0.17-0.31-0.31-0.51-0.41
		c-0.2-0.1-0.43-0.16-0.68-0.16c-0.26,0-0.49,0.05-0.69,0.16s-0.37,0.24-0.51,0.41c-0.14,0.17-0.25,0.37-0.34,0.59
		c-0.08,0.22-0.14,0.45-0.16,0.68h3.34C50.83,37.96,50.79,37.73,50.71,37.51z"/>
	<path fill="#B4B4B5" d="M54.37,35.98v0.53h-1.05v3.48c0,0.21,0.03,0.37,0.08,0.49c0.06,0.12,0.2,0.18,0.42,0.2
		c0.18,0,0.36-0.01,0.54-0.03v0.53c-0.09,0-0.19,0-0.28,0.01c-0.09,0.01-0.19,0.01-0.28,0.01c-0.42,0-0.71-0.08-0.88-0.25
		c-0.17-0.16-0.25-0.46-0.24-0.9v-3.53h-0.9v-0.53h0.9v-1.55h0.63v1.55H54.37z"/>
	<path fill="#B4B4B5" d="M55.43,35.98l1.32,4.42h0.02l1.26-4.42h0.71L60,40.39h0.02l1.32-4.42h0.67l-1.66,5.16h-0.69l-1.27-4.34
		h-0.02l-1.26,4.34h-0.69l-1.66-5.16H55.43z"/>
	<path fill="#B4B4B5" d="M65.91,36.05c0.3,0.15,0.56,0.34,0.76,0.59c0.21,0.25,0.36,0.54,0.47,0.87c0.11,0.33,0.16,0.68,0.16,1.05
		s-0.05,0.72-0.16,1.05c-0.11,0.33-0.26,0.62-0.47,0.87c-0.21,0.25-0.46,0.44-0.76,0.58c-0.3,0.14-0.65,0.21-1.05,0.21
		c-0.39,0-0.74-0.07-1.04-0.21c-0.3-0.14-0.56-0.34-0.76-0.58c-0.21-0.25-0.36-0.54-0.47-0.87c-0.11-0.33-0.16-0.68-0.16-1.05
		s0.05-0.72,0.16-1.05c0.11-0.33,0.26-0.62,0.47-0.87c0.21-0.25,0.46-0.44,0.76-0.59c0.3-0.15,0.65-0.22,1.04-0.22
		C65.26,35.83,65.61,35.9,65.91,36.05z M64.08,36.55c-0.23,0.13-0.42,0.29-0.57,0.5c-0.15,0.21-0.26,0.44-0.34,0.71
		s-0.11,0.53-0.11,0.8s0.04,0.54,0.11,0.8c0.08,0.26,0.19,0.5,0.34,0.71c0.15,0.21,0.34,0.37,0.57,0.5
		c0.23,0.13,0.49,0.19,0.79,0.19c0.3,0,0.56-0.06,0.79-0.19c0.23-0.13,0.42-0.29,0.56-0.5c0.15-0.21,0.26-0.44,0.34-0.71
		c0.08-0.26,0.11-0.53,0.11-0.8s-0.04-0.54-0.11-0.8s-0.19-0.5-0.34-0.71c-0.15-0.21-0.34-0.37-0.56-0.5s-0.49-0.19-0.79-0.19
		C64.57,36.35,64.3,36.42,64.08,36.55z"/>
	<path fill="#B4B4B5" d="M68.83,35.98v1.21h0.02c0.16-0.42,0.41-0.74,0.74-0.97c0.34-0.23,0.74-0.33,1.21-0.31v0.63
		c-0.29-0.01-0.55,0.02-0.78,0.11c-0.23,0.09-0.44,0.22-0.6,0.39c-0.17,0.17-0.3,0.36-0.4,0.59c-0.09,0.23-0.14,0.48-0.14,0.75v2.75
		h-0.63v-5.16H68.83z"/>
	<path fill="#B4B4B5" d="M72.03,34v4.48l2.86-2.5h0.84l-2.2,1.91l2.35,3.25h-0.79l-2.04-2.81l-1.02,0.85v1.96H71.4V34H72.03z"/>
	<path fill="#B4B4B5" d="M79.96,33.27v9.99h-0.53v-9.99H79.96z"/>
	<path fill="#B4B4B5" d="M87.15,36.98c-0.07-0.14-0.17-0.26-0.29-0.35c-0.12-0.09-0.27-0.16-0.42-0.21
		c-0.16-0.04-0.33-0.07-0.51-0.07c-0.14,0-0.28,0.02-0.42,0.04c-0.14,0.03-0.27,0.08-0.4,0.15s-0.22,0.16-0.29,0.28
		s-0.11,0.25-0.11,0.42c0,0.14,0.03,0.26,0.1,0.35c0.07,0.1,0.16,0.18,0.27,0.25c0.11,0.07,0.22,0.12,0.35,0.17
		c0.13,0.04,0.24,0.08,0.35,0.11l0.84,0.19c0.18,0.03,0.36,0.08,0.54,0.15c0.18,0.07,0.33,0.16,0.47,0.27
		c0.14,0.11,0.25,0.25,0.33,0.42c0.09,0.17,0.13,0.36,0.13,0.59c0,0.28-0.06,0.52-0.19,0.72c-0.13,0.2-0.29,0.36-0.48,0.48
		c-0.2,0.12-0.42,0.21-0.67,0.26c-0.25,0.05-0.49,0.08-0.73,0.08c-0.61,0-1.1-0.14-1.48-0.43c-0.38-0.29-0.59-0.75-0.65-1.38h0.63
		c0.03,0.43,0.18,0.75,0.46,0.96c0.28,0.22,0.64,0.33,1.06,0.33c0.15,0,0.31-0.02,0.48-0.05c0.16-0.03,0.31-0.09,0.46-0.17
		c0.14-0.08,0.25-0.18,0.34-0.31c0.09-0.12,0.14-0.27,0.14-0.46c0-0.15-0.03-0.28-0.1-0.38s-0.15-0.19-0.25-0.26
		c-0.11-0.07-0.23-0.13-0.37-0.17s-0.27-0.09-0.41-0.12l-0.81-0.18c-0.21-0.05-0.4-0.11-0.57-0.18s-0.32-0.16-0.46-0.26
		c-0.13-0.1-0.23-0.23-0.3-0.38c-0.07-0.15-0.11-0.33-0.11-0.56c0-0.26,0.06-0.48,0.17-0.67s0.27-0.34,0.46-0.45
		c0.19-0.11,0.4-0.2,0.62-0.25c0.23-0.05,0.46-0.08,0.69-0.08c0.26,0,0.5,0.03,0.72,0.1c0.22,0.07,0.42,0.17,0.59,0.31
		c0.17,0.14,0.3,0.31,0.4,0.52s0.16,0.45,0.17,0.73h-0.63C87.26,37.29,87.22,37.12,87.15,36.98z"/>
	<path fill="#B4B4B5" d="M89.45,39.43c0.06,0.24,0.17,0.46,0.31,0.66c0.14,0.19,0.32,0.35,0.53,0.48c0.21,0.13,0.47,0.19,0.77,0.19
		c0.46,0,0.82-0.12,1.08-0.36s0.44-0.56,0.54-0.96h0.63c-0.13,0.59-0.38,1.04-0.73,1.36c-0.36,0.32-0.86,0.48-1.52,0.48
		c-0.41,0-0.76-0.07-1.05-0.21c-0.3-0.14-0.54-0.34-0.73-0.59c-0.19-0.25-0.33-0.54-0.42-0.87c-0.09-0.33-0.14-0.68-0.14-1.04
		c0-0.34,0.04-0.67,0.14-1c0.09-0.33,0.23-0.62,0.42-0.88c0.19-0.26,0.43-0.46,0.73-0.62c0.3-0.16,0.65-0.23,1.05-0.23
		c0.41,0,0.77,0.08,1.06,0.25c0.29,0.17,0.53,0.38,0.71,0.65c0.18,0.27,0.31,0.58,0.4,0.93c0.08,0.35,0.11,0.71,0.1,1.06h-3.97
		C89.36,38.95,89.39,39.19,89.45,39.43z M92.57,37.51c-0.08-0.22-0.19-0.42-0.33-0.58c-0.14-0.17-0.31-0.31-0.51-0.41
		c-0.2-0.1-0.43-0.16-0.68-0.16c-0.26,0-0.49,0.05-0.69,0.16s-0.37,0.24-0.51,0.41c-0.14,0.17-0.25,0.37-0.34,0.59
		c-0.08,0.22-0.14,0.45-0.16,0.68h3.34C92.69,37.96,92.65,37.73,92.57,37.51z"/>
	<path fill="#B4B4B5" d="M94.76,35.98v1.21h0.02c0.16-0.42,0.41-0.74,0.74-0.97c0.34-0.23,0.74-0.33,1.21-0.31v0.63
		c-0.29-0.01-0.55,0.02-0.78,0.11c-0.23,0.09-0.44,0.22-0.6,0.39c-0.17,0.17-0.3,0.36-0.4,0.59c-0.09,0.23-0.14,0.48-0.14,0.75v2.75
		h-0.63v-5.16H94.76z"/>
	<path fill="#B4B4B5" d="M97.45,35.98l1.62,4.53h0.02l1.6-4.53h0.65l-1.93,5.16h-0.67l-1.99-5.16H97.45z"/>
	<path fill="#B4B4B5" d="M102.6,34v1.01h-0.63V34H102.6z M102.6,35.98v5.16h-0.63v-5.16H102.6z"/>
	<path fill="#B4B4B5" d="M106.97,36.68c-0.23-0.22-0.56-0.33-0.98-0.33c-0.3,0-0.56,0.06-0.79,0.19c-0.23,0.13-0.42,0.29-0.57,0.5
		c-0.15,0.21-0.26,0.44-0.34,0.71s-0.11,0.53-0.11,0.8s0.04,0.54,0.11,0.8c0.08,0.26,0.19,0.5,0.34,0.71
		c0.15,0.21,0.34,0.37,0.57,0.5c0.23,0.13,0.49,0.19,0.79,0.19c0.19,0,0.38-0.04,0.55-0.11s0.33-0.17,0.46-0.3s0.24-0.29,0.33-0.46
		c0.09-0.18,0.14-0.38,0.16-0.59h0.63c-0.09,0.63-0.32,1.11-0.69,1.46c-0.37,0.35-0.85,0.52-1.44,0.52c-0.39,0-0.74-0.07-1.04-0.21
		s-0.56-0.34-0.76-0.58c-0.21-0.25-0.36-0.54-0.47-0.87c-0.11-0.33-0.16-0.68-0.16-1.05s0.05-0.72,0.16-1.05
		c0.11-0.33,0.26-0.62,0.47-0.87c0.21-0.25,0.46-0.44,0.76-0.59s0.65-0.22,1.04-0.22c0.55,0,1.02,0.15,1.41,0.44
		c0.38,0.29,0.61,0.74,0.69,1.33h-0.63C107.36,37.21,107.2,36.9,106.97,36.68z"/>
	<path fill="#B4B4B5" d="M109.46,39.43c0.06,0.24,0.17,0.46,0.31,0.66c0.14,0.19,0.32,0.35,0.53,0.48c0.21,0.13,0.47,0.19,0.77,0.19
		c0.46,0,0.82-0.12,1.08-0.36s0.44-0.56,0.54-0.96h0.63c-0.13,0.59-0.38,1.04-0.73,1.36c-0.36,0.32-0.86,0.48-1.52,0.48
		c-0.41,0-0.76-0.07-1.05-0.21c-0.3-0.14-0.54-0.34-0.73-0.59c-0.19-0.25-0.33-0.54-0.42-0.87c-0.09-0.33-0.14-0.68-0.14-1.04
		c0-0.34,0.04-0.67,0.14-1c0.09-0.33,0.23-0.62,0.42-0.88c0.19-0.26,0.43-0.46,0.73-0.62c0.3-0.16,0.65-0.23,1.05-0.23
		c0.41,0,0.77,0.08,1.06,0.25c0.29,0.17,0.53,0.38,0.71,0.65c0.18,0.27,0.31,0.58,0.4,0.93c0.08,0.35,0.11,0.71,0.1,1.06h-3.97
		C109.37,38.95,109.4,39.19,109.46,39.43z M112.58,37.51c-0.08-0.22-0.19-0.42-0.33-0.58c-0.14-0.17-0.31-0.31-0.51-0.41
		c-0.2-0.1-0.43-0.16-0.68-0.16c-0.26,0-0.49,0.05-0.69,0.16s-0.37,0.24-0.51,0.41c-0.14,0.17-0.25,0.37-0.34,0.59
		c-0.08,0.22-0.14,0.45-0.16,0.68h3.34C112.7,37.96,112.66,37.73,112.58,37.51z"/>
	<path fill="#B4B4B5" d="M117.16,36.98c-0.07-0.14-0.17-0.26-0.29-0.35c-0.12-0.09-0.27-0.16-0.42-0.21
		c-0.16-0.04-0.33-0.07-0.51-0.07c-0.14,0-0.28,0.02-0.42,0.04c-0.14,0.03-0.27,0.08-0.4,0.15s-0.22,0.16-0.29,0.28
		s-0.11,0.25-0.11,0.42c0,0.14,0.03,0.26,0.1,0.35c0.07,0.1,0.16,0.18,0.27,0.25c0.11,0.07,0.22,0.12,0.35,0.17
		c0.13,0.04,0.24,0.08,0.35,0.11l0.84,0.19c0.18,0.03,0.36,0.08,0.54,0.15c0.18,0.07,0.33,0.16,0.47,0.27
		c0.14,0.11,0.25,0.25,0.33,0.42c0.09,0.17,0.13,0.36,0.13,0.59c0,0.28-0.06,0.52-0.19,0.72c-0.13,0.2-0.29,0.36-0.48,0.48
		c-0.2,0.12-0.42,0.21-0.67,0.26c-0.25,0.05-0.49,0.08-0.73,0.08c-0.61,0-1.1-0.14-1.48-0.43c-0.38-0.29-0.59-0.75-0.65-1.38h0.63
		c0.03,0.43,0.18,0.75,0.46,0.96c0.28,0.22,0.64,0.33,1.06,0.33c0.15,0,0.31-0.02,0.48-0.05c0.16-0.03,0.31-0.09,0.46-0.17
		c0.14-0.08,0.25-0.18,0.34-0.31c0.09-0.12,0.14-0.27,0.14-0.46c0-0.15-0.03-0.28-0.1-0.38s-0.15-0.19-0.25-0.26
		c-0.11-0.07-0.23-0.13-0.37-0.17s-0.27-0.09-0.41-0.12l-0.81-0.18c-0.21-0.05-0.4-0.11-0.57-0.18s-0.32-0.16-0.46-0.26
		c-0.13-0.1-0.23-0.23-0.3-0.38c-0.07-0.15-0.11-0.33-0.11-0.56c0-0.26,0.06-0.48,0.17-0.67s0.27-0.34,0.46-0.45
		c0.19-0.11,0.4-0.2,0.62-0.25c0.23-0.05,0.46-0.08,0.69-0.08c0.26,0,0.5,0.03,0.72,0.1c0.22,0.07,0.42,0.17,0.59,0.31
		c0.17,0.14,0.3,0.31,0.4,0.52s0.16,0.45,0.17,0.73h-0.63C117.27,37.29,117.23,37.12,117.16,36.98z"/>
</g>
</svg>
